<svg width="34" height="34" viewBox="0 0 34 34" fill="none" xmlns="http://www.w3.org/2000/svg">
<path d="M20.0648 16.5018L32.2998 4.26775C33.2758 3.29175 33.2758 1.70875 32.2998 0.73275C31.3228 -0.24425 29.7407 -0.24425 28.7647 0.73275L16.5297 12.9668L4.29575 0.73275C3.31975 -0.24425 1.73575 -0.24425 0.76075 0.73275C-0.21625 1.70875 -0.21625 3.29175 0.76075 4.26775L12.9948 16.5018L0.73275 28.7647C-0.24425 29.7417 -0.24425 31.3237 0.73275 32.2997C1.22075 32.7877 1.86075 33.0317 2.50075 33.0317C3.14075 33.0317 3.78075 32.7877 4.26875 32.2997L16.5308 20.0368L28.7647 32.2707C29.2527 32.7587 29.8927 33.0027 30.5327 33.0027C31.1727 33.0027 31.8118 32.7587 32.3008 32.2707C33.2768 31.2937 33.2768 29.7118 32.3008 28.7358L20.0648 16.5018Z" fill="#DD2E44"/>
</svg>
