<svg width="24" height="24" viewBox="0 0 32 32" fill="none" xmlns="http://www.w3.org/2000/svg">
<path d="M27.0875 19.0751C25.1242 19.6257 23.0497 19.6437 21.0771 19.1274C19.1045 18.611 17.3048 17.579 15.863 16.1371C14.4212 14.6953 13.3891 12.8957 12.8728 10.923C12.3564 8.95043 12.3745 6.87593 12.925 4.9126C10.9894 5.45136 9.22863 6.48787 7.81821 7.91889C6.40779 9.3499 5.39691 11.1255 4.88627 13.0688C4.37562 15.012 4.38302 17.0552 4.90774 18.9947C5.43246 20.9342 6.45618 22.7024 7.87694 24.1232C9.29769 25.5439 11.0659 26.5677 13.0054 27.0924C14.9449 27.6171 16.9881 27.6245 18.9314 27.1139C20.8746 26.6032 22.6502 25.5923 24.0812 24.1819C25.5123 22.7715 26.5488 21.0108 27.0875 19.0751V19.0751Z" stroke="#F4F4F5" stroke-width="2" stroke-linecap="round" stroke-linejoin="round"/>
</svg>
